<svg xmlns="http://www.w3.org/2000/svg" viewBox="0 0 1100 900" fill="none">
  <defs>
    <filter id="shadow" x="0" y="0" width="1100" height="900" filterUnits="userSpaceOnUse">
      <feDropShadow dx="0" dy="18" stdDeviation="24" flood-color="#000000" flood-opacity="0.24"/>
    </filter>
    <linearGradient id="screenFill" x1="266" y1="210" x2="786" y2="670" gradientUnits="userSpaceOnUse">
      <stop offset="0" stop-color="#545963"/>
      <stop offset="0.24" stop-color="#3e434d"/>
      <stop offset="0.55" stop-color="#20252c"/>
      <stop offset="1" stop-color="#0b0e13"/>
    </linearGradient>
  </defs>

  <g filter="url(#shadow)">
    <path
      d="
        M 128 98
        C 128 65 155 38 188 38
        L 214 38
        C 247 38 274 65 274 98
        L 274 116
        C 274 149 301 176 334 176
        L 768 176
        C 801 176 828 149 828 116
        L 828 98
        C 828 65 855 38 888 38
        L 914 38
        C 947 38 974 65 974 98
        L 974 782
        C 974 815 947 842 914 842
        L 888 842
        C 855 842 828 815 828 782
        L 828 764
        C 828 731 801 704 768 704
        L 334 704
        C 301 704 274 731 274 764
        L 274 782
        C 274 815 247 842 214 842
        L 188 842
        C 155 842 128 815 128 782
        Z"
      fill="#1d1d1d"
      stroke="#2a2a2a"
      stroke-width="6"
    />

    <g>
      <circle cx="188" cy="112" r="33" fill="#d2b33a"/>
      <circle cx="188" cy="112" r="16" fill="#d8dbe0"/>
      <circle cx="188" cy="112" r="8" fill="#aaafb5"/>

      <circle cx="914" cy="112" r="33" fill="#d2b33a"/>
      <circle cx="914" cy="112" r="16" fill="#d8dbe0"/>
      <circle cx="914" cy="112" r="8" fill="#aaafb5"/>

      <circle cx="188" cy="768" r="33" fill="#d2b33a"/>
      <circle cx="188" cy="768" r="16" fill="#d8dbe0"/>
      <circle cx="188" cy="768" r="8" fill="#aaafb5"/>

      <circle cx="914" cy="768" r="33" fill="#d2b33a"/>
      <circle cx="914" cy="768" r="16" fill="#d8dbe0"/>
      <circle cx="914" cy="768" r="8" fill="#aaafb5"/>
    </g>

    <g transform="translate(0 0)">
      <rect
        x="174"
        y="190"
        width="632"
        height="500"
        rx="22"
        fill="#111316"
        stroke="#3a3d43"
        stroke-width="6"
      />
      <rect
        x="190"
        y="210"
        width="598"
        height="460"
        rx="14"
        fill="url(#screenFill)"
        stroke="#0b0d12"
        stroke-width="4"
      />
      <path
        d="M 452 214 L 772 214 L 772 364 Q 706 324 636 278 Q 548 224 452 214 Z"
        fill="#ffffff"
        fill-opacity="0.18"
      />
      <path
        d="M 216 254 Q 452 234 628 252 T 780 236"
        stroke="#d9dde5"
        stroke-opacity="0.12"
        stroke-width="10"
        stroke-linecap="round"
      />
      <path
        d="M 208 612 Q 404 556 540 578 T 772 544"
        stroke="#ffffff"
        stroke-opacity="0.08"
        stroke-width="10"
        stroke-linecap="round"
      />
    </g>

    <g transform="translate(0 0)">
      <rect x="888" y="168" width="18" height="18" rx="4" fill="#12161c" stroke="#3a414b" stroke-width="3"/>
      <rect x="894" y="174" width="6" height="6" rx="2" fill="#d2b33a"/>

      <rect x="880" y="274" width="34" height="34" rx="6" fill="#0f1318" stroke="#c99f24" stroke-width="3"/>
      <circle cx="897" cy="291" r="8" fill="#1c2128" stroke="#525b68" stroke-width="2"/>

      <g transform="translate(853 376)">
        <rect x="0" y="0" width="88" height="88" rx="12" fill="#171b20" stroke="#444c57" stroke-width="5"/>
        <rect x="12" y="12" width="64" height="64" rx="10" fill="#0e1217" stroke="#2e353e" stroke-width="3"/>
        <circle cx="44" cy="44" r="25" fill="#181d24"/>
        <circle cx="44" cy="44" r="18" fill="#2b3139"/>
        <rect x="39" y="18" width="10" height="52" rx="4" fill="#878f9a"/>
        <rect x="18" y="39" width="52" height="10" rx="4" fill="#878f9a"/>
        <rect x="-8" y="22" width="8" height="12" rx="2" fill="#cda52a"/>
        <rect x="-8" y="54" width="8" height="12" rx="2" fill="#cda52a"/>
        <rect x="88" y="22" width="8" height="12" rx="2" fill="#cda52a"/>
        <rect x="88" y="54" width="8" height="12" rx="2" fill="#cda52a"/>
        <rect x="22" y="-8" width="12" height="8" rx="2" fill="#cda52a"/>
        <rect x="54" y="-8" width="12" height="8" rx="2" fill="#cda52a"/>
        <rect x="22" y="88" width="12" height="8" rx="2" fill="#cda52a"/>
        <rect x="54" y="88" width="12" height="8" rx="2" fill="#cda52a"/>
      </g>

      <rect x="880" y="538" width="34" height="34" rx="6" fill="#0f1318" stroke="#c99f24" stroke-width="3"/>
      <circle cx="897" cy="555" r="8" fill="#1c2128" stroke="#525b68" stroke-width="2"/>

      <rect x="888" y="654" width="18" height="18" rx="4" fill="#12161c" stroke="#3a414b" stroke-width="3"/>
      <rect x="894" y="660" width="6" height="6" rx="2" fill="#d2b33a"/>
    </g>
  </g>
</svg>
