<svg xmlns="http://www.w3.org/2000/svg" viewBox="0 0 2504 1974" fill="none">
  <defs>
    <linearGradient id="boardFill" x1="278" y1="182" x2="2186" y2="1826" gradientUnits="userSpaceOnUse">
      <stop stop-color="#1f2327"/>
      <stop offset=".46" stop-color="#14181c"/>
      <stop offset="1" stop-color="#090c0f"/>
    </linearGradient>
    <linearGradient id="boardShade" x1="460" y1="1680" x2="2080" y2="430" gradientUnits="userSpaceOnUse">
      <stop stop-color="#080c10" stop-opacity=".5"/>
      <stop offset=".58" stop-color="#1d232b" stop-opacity=".16"/>
      <stop offset="1" stop-color="#ffffff" stop-opacity=".04"/>
    </linearGradient>
    <linearGradient id="terminalFill" x1="0" y1="0" x2="1" y2="1">
      <stop stop-color="#8cd98f"/>
      <stop offset="1" stop-color="#457a43"/>
    </linearGradient>
    <linearGradient id="metal" x1="0" y1="0" x2="1" y2="1">
      <stop stop-color="#ffffff"/>
      <stop offset=".48" stop-color="#d7d7d7"/>
      <stop offset="1" stop-color="#7e7e7e"/>
    </linearGradient>
    <linearGradient id="relayFace" x1="0" y1="0" x2="1" y2="1">
      <stop stop-color="#585350"/>
      <stop offset=".55" stop-color="#2f2b29"/>
      <stop offset="1" stop-color="#161413"/>
    </linearGradient>
    <filter id="boardShadow" x="80" y="50" width="2344" height="1864" filterUnits="userSpaceOnUse">
      <feDropShadow dx="0" dy="18" stdDeviation="22" flood-color="#000" flood-opacity=".26"/>
    </filter>
    <filter id="softGlow" x="-20%" y="-20%" width="140%" height="140%">
      <feGaussianBlur stdDeviation="14"/>
    </filter>
    <style>
      .trace { stroke: rgba(26, 36, 35, 0.88); stroke-width: 5; stroke-linecap: round; stroke-linejoin: round; fill: none; }
      .trace-fine { stroke: rgba(118, 181, 163, 0.16); stroke-width: 2.4; stroke-linecap: round; stroke-linejoin: round; fill: none; }
      .pad { fill: #f0b93b; }
      .chip { fill: #1f2222; stroke: rgba(255,255,255,.12); stroke-width: 2; }
      .smd { fill: #ede6d8; }
      .label { fill: rgba(235,255,248,.42); font: 700 20px 'Segoe UI', Arial, sans-serif; letter-spacing: .08em; }
    </style>
  </defs>

  <g filter="url(#boardShadow)">
    <rect x="160" y="114" width="2184" height="1746" rx="54" fill="url(#boardFill)"/>
    <rect x="160" y="114" width="2184" height="1746" rx="54" fill="url(#boardShade)"/>
    <rect x="160" y="114" width="2184" height="1746" rx="54" stroke="rgba(220,255,250,.12)" stroke-width="8"/>
  </g>

  <g opacity=".06">
    <circle cx="1252" cy="987" r="632" fill="#4c9a86" filter="url(#softGlow)"/>
  </g>

  <g>
    <circle cx="260" cy="214" r="72" fill="#ececec"/>
    <circle cx="260" cy="214" r="34" fill="#4b4643"/>
    <circle cx="2244" cy="214" r="72" fill="#ececec"/>
    <circle cx="2244" cy="214" r="34" fill="#4b4643"/>
    <circle cx="260" cy="1760" r="72" fill="#ececec"/>
    <circle cx="260" cy="1760" r="34" fill="#111"/>
    <circle cx="2244" cy="1760" r="72" fill="#ececec"/>
    <circle cx="2244" cy="1760" r="34" fill="#111"/>
  </g>

  <g transform="translate(430 72)">
    <rect x="0" y="0" width="1640" height="210" rx="24" fill="url(#terminalFill)"/>
    <rect x="0" y="90" width="1640" height="82" fill="#365839"/>
    <rect x="0" y="172" width="1640" height="22" fill="#27432a" opacity=".72"/>
    <g fill="url(#metal)">
      <circle cx="38" cy="46" r="23"/><circle cx="95" cy="46" r="23"/><circle cx="152" cy="46" r="23"/><circle cx="209" cy="46" r="23"/><circle cx="266" cy="46" r="23"/><circle cx="323" cy="46" r="23"/><circle cx="380" cy="46" r="23"/><circle cx="437" cy="46" r="23"/><circle cx="494" cy="46" r="23"/><circle cx="551" cy="46" r="23"/><circle cx="608" cy="46" r="23"/><circle cx="665" cy="46" r="23"/><circle cx="722" cy="46" r="23"/><circle cx="779" cy="46" r="23"/><circle cx="836" cy="46" r="23"/><circle cx="893" cy="46" r="23"/><circle cx="950" cy="46" r="23"/><circle cx="1007" cy="46" r="23"/><circle cx="1064" cy="46" r="23"/><circle cx="1121" cy="46" r="23"/><circle cx="1178" cy="46" r="23"/><circle cx="1235" cy="46" r="23"/><circle cx="1292" cy="46" r="23"/><circle cx="1349" cy="46" r="23"/><circle cx="1406" cy="46" r="23"/><circle cx="1463" cy="46" r="23"/><circle cx="1520" cy="46" r="23"/><circle cx="1577" cy="46" r="23"/>
      <circle cx="38" cy="116" r="23"/><circle cx="95" cy="116" r="23"/><circle cx="152" cy="116" r="23"/><circle cx="209" cy="116" r="23"/><circle cx="266" cy="116" r="23"/><circle cx="323" cy="116" r="23"/><circle cx="380" cy="116" r="23"/><circle cx="437" cy="116" r="23"/><circle cx="494" cy="116" r="23"/><circle cx="551" cy="116" r="23"/><circle cx="608" cy="116" r="23"/><circle cx="665" cy="116" r="23"/><circle cx="722" cy="116" r="23"/><circle cx="779" cy="116" r="23"/><circle cx="836" cy="116" r="23"/><circle cx="893" cy="116" r="23"/><circle cx="950" cy="116" r="23"/><circle cx="1007" cy="116" r="23"/><circle cx="1064" cy="116" r="23"/><circle cx="1121" cy="116" r="23"/><circle cx="1178" cy="116" r="23"/><circle cx="1235" cy="116" r="23"/><circle cx="1292" cy="116" r="23"/><circle cx="1349" cy="116" r="23"/><circle cx="1406" cy="116" r="23"/><circle cx="1463" cy="116" r="23"/><circle cx="1520" cy="116" r="23"/><circle cx="1577" cy="116" r="23"/>
    </g>
  </g>

  <g transform="translate(440 1586)">
    <rect x="0" y="0" width="1620" height="214" rx="24" fill="url(#terminalFill)"/>
    <rect x="0" y="20" width="1620" height="84" fill="#3c6a3b"/>
    <rect x="0" y="110" width="1620" height="84" fill="#457b44"/>
    <g fill="url(#metal)">
      <circle cx="44" cy="62" r="23"/><circle cx="101" cy="62" r="23"/><circle cx="158" cy="62" r="23"/><circle cx="215" cy="62" r="23"/><circle cx="272" cy="62" r="23"/><circle cx="329" cy="62" r="23"/><circle cx="386" cy="62" r="23"/><circle cx="443" cy="62" r="23"/><circle cx="500" cy="62" r="23"/><circle cx="557" cy="62" r="23"/><circle cx="614" cy="62" r="23"/><circle cx="671" cy="62" r="23"/><circle cx="728" cy="62" r="23"/><circle cx="785" cy="62" r="23"/><circle cx="842" cy="62" r="23"/><circle cx="899" cy="62" r="23"/><circle cx="956" cy="62" r="23"/><circle cx="1013" cy="62" r="23"/><circle cx="1070" cy="62" r="23"/><circle cx="1127" cy="62" r="23"/><circle cx="1184" cy="62" r="23"/><circle cx="1241" cy="62" r="23"/><circle cx="1298" cy="62" r="23"/><circle cx="1355" cy="62" r="23"/><circle cx="1412" cy="62" r="23"/><circle cx="1469" cy="62" r="23"/><circle cx="1526" cy="62" r="23"/><circle cx="1583" cy="62" r="23"/>
      <circle cx="44" cy="152" r="23"/><circle cx="101" cy="152" r="23"/><circle cx="158" cy="152" r="23"/><circle cx="215" cy="152" r="23"/><circle cx="272" cy="152" r="23"/><circle cx="329" cy="152" r="23"/><circle cx="386" cy="152" r="23"/><circle cx="443" cy="152" r="23"/><circle cx="500" cy="152" r="23"/><circle cx="557" cy="152" r="23"/><circle cx="614" cy="152" r="23"/><circle cx="671" cy="152" r="23"/><circle cx="728" cy="152" r="23"/><circle cx="785" cy="152" r="23"/><circle cx="842" cy="152" r="23"/><circle cx="899" cy="152" r="23"/><circle cx="956" cy="152" r="23"/><circle cx="1013" cy="152" r="23"/><circle cx="1070" cy="152" r="23"/><circle cx="1127" cy="152" r="23"/><circle cx="1184" cy="152" r="23"/><circle cx="1241" cy="152" r="23"/><circle cx="1298" cy="152" r="23"/><circle cx="1355" cy="152" r="23"/><circle cx="1412" cy="152" r="23"/><circle cx="1469" cy="152" r="23"/><circle cx="1526" cy="152" r="23"/><circle cx="1583" cy="152" r="23"/>
    </g>
  </g>

  <g>
    <path class="trace" d="M454 540h250l48 44h216"/>
    <path class="trace" d="M472 1204h454"/>
    <path class="trace" d="M1024 796h456"/>
    <path class="trace" d="M1450 760h458"/>
    <path class="trace" d="M1020 1330h590"/>
    <path class="trace" d="M1794 1132h220"/>
    <path class="trace" d="M1886 420l-168 168"/>
    <path class="trace" d="M1384 516v170"/>
    <path class="trace-fine" d="M872 380h706v96"/>
    <path class="trace-fine" d="M872 460h706v102"/>
    <path class="trace-fine" d="M860 556h716"/>
    <path class="trace-fine" d="M648 920l42-48 96 0 34-40h138"/>
    <path class="trace-fine" d="M1650 1408h304"/>
  </g>

  <g transform="translate(930 580)">
    <rect x="0" y="0" width="690" height="520" rx="10" fill="none" stroke="rgba(240,255,250,.32)" stroke-width="6"/>
    <rect x="0" y="0" width="4" height="520" fill="rgba(240,255,250,.2)"/>
    <rect x="686" y="0" width="4" height="520" fill="rgba(240,255,250,.2)"/>
  </g>

  <g transform="translate(918 484)">
    <rect x="0" y="0" width="742" height="54" fill="#101414" rx="6"/>
    <rect x="-4" y="14" width="750" height="8" fill="rgba(255,255,255,.16)"/>
    <rect x="-4" y="34" width="750" height="8" fill="rgba(255,255,255,.1)"/>
  </g>

  <g transform="translate(996 834)">
    <g>
      <rect class="pad" x="0" y="0" width="62" height="96" rx="8"/>
      <rect class="chip" x="24" y="126" width="52" height="56" rx="8"/>
      <rect class="smd" x="-20" y="126" width="16" height="24" rx="4"/>
      <rect class="smd" x="-20" y="158" width="16" height="24" rx="4"/>
      <rect class="smd" x="96" y="126" width="16" height="24" rx="4"/>
      <rect class="smd" x="96" y="158" width="16" height="24" rx="4"/>
    </g>
    <g transform="translate(236 0)">
      <rect class="pad" x="0" y="0" width="62" height="96" rx="8"/>
      <rect class="chip" x="24" y="126" width="52" height="56" rx="8"/>
      <rect class="smd" x="-20" y="126" width="16" height="24" rx="4"/>
      <rect class="smd" x="-20" y="158" width="16" height="24" rx="4"/>
      <rect class="smd" x="96" y="126" width="16" height="24" rx="4"/>
      <rect class="smd" x="96" y="158" width="16" height="24" rx="4"/>
    </g>
    <g transform="translate(472 0)">
      <rect class="pad" x="0" y="0" width="62" height="96" rx="8"/>
      <rect class="chip" x="24" y="126" width="52" height="56" rx="8"/>
      <rect class="smd" x="-20" y="126" width="16" height="24" rx="4"/>
      <rect class="smd" x="-20" y="158" width="16" height="24" rx="4"/>
      <rect class="smd" x="96" y="126" width="16" height="24" rx="4"/>
      <rect class="smd" x="96" y="158" width="16" height="24" rx="4"/>
    </g>
  </g>

  <g transform="translate(918 1188)">
    <rect x="0" y="0" width="742" height="72" rx="8" fill="#0d1012"/>
    <rect x="0" y="18" width="742" height="10" fill="rgba(255,255,255,.18)"/>
    <rect x="0" y="42" width="742" height="10" fill="rgba(255,255,255,.12)"/>
  </g>

  <g transform="translate(786 1274)">
    <g transform="translate(0 0)">
      <rect width="126" height="320" rx="14" fill="url(#relayFace)"/>
      <rect x="22" y="28" width="82" height="16" rx="6" fill="rgba(255,255,255,.32)"/>
      <circle cx="63" cy="252" r="20" stroke="rgba(0,0,0,.5)" stroke-width="6"/>
    </g>
    <g transform="translate(164 0)">
      <rect width="126" height="320" rx="14" fill="url(#relayFace)"/>
      <rect x="22" y="28" width="82" height="16" rx="6" fill="rgba(255,255,255,.32)"/>
      <circle cx="63" cy="252" r="20" stroke="rgba(0,0,0,.5)" stroke-width="6"/>
    </g>
    <g transform="translate(328 0)">
      <rect width="126" height="320" rx="14" fill="url(#relayFace)"/>
      <rect x="22" y="28" width="82" height="16" rx="6" fill="rgba(255,255,255,.32)"/>
      <circle cx="63" cy="252" r="20" stroke="rgba(0,0,0,.5)" stroke-width="6"/>
    </g>
    <g transform="translate(492 0)">
      <rect width="126" height="320" rx="14" fill="url(#relayFace)"/>
      <rect x="22" y="28" width="82" height="16" rx="6" fill="rgba(255,255,255,.32)"/>
      <circle cx="63" cy="252" r="20" stroke="rgba(0,0,0,.5)" stroke-width="6"/>
    </g>
    <g transform="translate(656 0)">
      <rect width="126" height="320" rx="14" fill="url(#relayFace)"/>
      <rect x="22" y="28" width="82" height="16" rx="6" fill="rgba(255,255,255,.32)"/>
      <circle cx="63" cy="252" r="20" stroke="rgba(0,0,0,.5)" stroke-width="6"/>
    </g>
    <g transform="translate(820 0)">
      <rect width="126" height="320" rx="14" fill="url(#relayFace)"/>
      <rect x="22" y="28" width="82" height="16" rx="6" fill="rgba(255,255,255,.32)"/>
      <circle cx="63" cy="252" r="20" stroke="rgba(0,0,0,.5)" stroke-width="6"/>
    </g>
  </g>

  <g transform="translate(428 976)">
    <ellipse cx="112" cy="122" rx="70" ry="70" fill="#1c2424"/>
    <ellipse cx="76" cy="236" rx="70" ry="70" fill="#1c2424"/>
    <ellipse cx="178" cy="236" rx="70" ry="70" fill="#1c2424"/>
    <ellipse cx="52" cy="350" rx="70" ry="70" fill="#1c2424"/>
    <ellipse cx="154" cy="350" rx="70" ry="70" fill="#1c2424"/>
    <ellipse cx="104" cy="460" rx="70" ry="70" fill="#1c2424"/>
    <g fill="url(#metal)">
      <circle cx="112" cy="122" r="40"/>
      <circle cx="76" cy="236" r="40"/>
      <circle cx="178" cy="236" r="40"/>
      <circle cx="52" cy="350" r="40"/>
      <circle cx="154" cy="350" r="40"/>
      <circle cx="104" cy="460" r="40"/>
    </g>
  </g>

  <g transform="translate(1700 956)">
    <g transform="translate(0 0)">
      <rect class="chip" x="0" y="0" width="168" height="156" rx="14"/>
      <g fill="#efe9dd">
        <rect x="18" y="20" width="18" height="30" rx="4"/><rect x="48" y="20" width="18" height="30" rx="4"/><rect x="78" y="20" width="18" height="30" rx="4"/><rect x="108" y="20" width="18" height="30" rx="4"/><rect x="138" y="20" width="18" height="30" rx="4"/>
        <rect x="18" y="106" width="18" height="30" rx="4"/><rect x="48" y="106" width="18" height="30" rx="4"/><rect x="78" y="106" width="18" height="30" rx="4"/><rect x="108" y="106" width="18" height="30" rx="4"/><rect x="138" y="106" width="18" height="30" rx="4"/>
      </g>
    </g>
    <g transform="translate(210 0)">
      <rect class="chip" x="0" y="0" width="168" height="156" rx="14"/>
      <g fill="#efe9dd">
        <rect x="18" y="20" width="18" height="30" rx="4"/><rect x="48" y="20" width="18" height="30" rx="4"/><rect x="78" y="20" width="18" height="30" rx="4"/><rect x="108" y="20" width="18" height="30" rx="4"/><rect x="138" y="20" width="18" height="30" rx="4"/>
        <rect x="18" y="106" width="18" height="30" rx="4"/><rect x="48" y="106" width="18" height="30" rx="4"/><rect x="78" y="106" width="18" height="30" rx="4"/><rect x="108" y="106" width="18" height="30" rx="4"/><rect x="138" y="106" width="18" height="30" rx="4"/>
      </g>
    </g>
      <g transform="translate(28 176)">
        <rect class="chip" x="0" y="0" width="168" height="156" rx="14"/>
        <g fill="#efe9dd">
          <rect x="18" y="20" width="18" height="30" rx="4"/><rect x="48" y="20" width="18" height="30" rx="4"/><rect x="78" y="20" width="18" height="30" rx="4"/><rect x="108" y="20" width="18" height="30" rx="4"/><rect x="138" y="20" width="18" height="30" rx="4"/>
          <rect x="18" y="106" width="18" height="30" rx="4"/><rect x="48" y="106" width="18" height="30" rx="4"/><rect x="78" y="106" width="18" height="30" rx="4"/><rect x="108" y="106" width="18" height="30" rx="4"/><rect x="138" y="106" width="18" height="30" rx="4"/>
        </g>
    </g>
    <g transform="translate(252 196)">
      <rect class="chip" x="0" y="0" width="168" height="156" rx="14"/>
      <g fill="#efe9dd">
        <rect x="18" y="20" width="18" height="30" rx="4"/><rect x="48" y="20" width="18" height="30" rx="4"/><rect x="78" y="20" width="18" height="30" rx="4"/><rect x="108" y="20" width="18" height="30" rx="4"/><rect x="138" y="20" width="18" height="30" rx="4"/>
        <rect x="18" y="106" width="18" height="30" rx="4"/><rect x="48" y="106" width="18" height="30" rx="4"/><rect x="78" y="106" width="18" height="30" rx="4"/><rect x="108" y="106" width="18" height="30" rx="4"/><rect x="138" y="106" width="18" height="30" rx="4"/>
      </g>
    </g>
    <g fill="#efe9dd" opacity=".92">
      <rect x="-24" y="34" width="12" height="18" rx="3"/><rect x="-24" y="66" width="12" height="18" rx="3"/><rect x="-24" y="98" width="12" height="18" rx="3"/>
      <rect x="-44" y="22" width="12" height="18" rx="3"/><rect x="-44" y="54" width="12" height="18" rx="3"/><rect x="-44" y="86" width="12" height="18" rx="3"/><rect x="-44" y="118" width="12" height="18" rx="3"/>
      <rect x="398" y="18" width="12" height="18" rx="3"/><rect x="398" y="50" width="12" height="18" rx="3"/><rect x="398" y="82" width="12" height="18" rx="3"/><rect x="398" y="114" width="12" height="18" rx="3"/>
      <rect x="-24" y="230" width="12" height="18" rx="3"/><rect x="-24" y="262" width="12" height="18" rx="3"/><rect x="-24" y="294" width="12" height="18" rx="3"/>
      <rect x="440" y="214" width="12" height="18" rx="3"/><rect x="440" y="246" width="12" height="18" rx="3"/><rect x="440" y="278" width="12" height="18" rx="3"/><rect x="440" y="310" width="12" height="18" rx="3"/>
    </g>
    <g fill="#ede6d8">
      <rect x="72" y="172" width="24" height="20" rx="4"/><rect x="106" y="172" width="24" height="20" rx="4"/><rect x="140" y="172" width="24" height="20" rx="4"/>
      <rect x="324" y="172" width="24" height="20" rx="4"/><rect x="358" y="172" width="24" height="20" rx="4"/><rect x="392" y="172" width="24" height="20" rx="4"/>
    </g>
  </g>

  <g transform="translate(1706 790)">
    <rect class="chip" x="0" y="0" width="94" height="68" rx="10"/>
    <rect class="smd" x="116" y="0" width="18" height="28" rx="4"/>
    <rect class="smd" x="142" y="0" width="18" height="28" rx="4"/>
    <rect class="smd" x="168" y="0" width="18" height="28" rx="4"/>
    <rect class="smd" x="194" y="0" width="18" height="28" rx="4"/>
    <rect class="smd" x="116" y="38" width="18" height="28" rx="4"/>
    <rect class="smd" x="142" y="38" width="18" height="28" rx="4"/>
    <rect class="smd" x="168" y="38" width="18" height="28" rx="4"/>
    <rect class="smd" x="194" y="38" width="18" height="28" rx="4"/>
  </g>

  <g transform="translate(1890 748)">
    <rect class="pad" x="0" y="0" width="46" height="58" rx="8"/>
    <rect class="chip" x="78" y="0" width="62" height="112" rx="10"/>
    <rect class="smd" x="178" y="0" width="22" height="32" rx="4"/>
    <rect class="smd" x="178" y="40" width="22" height="32" rx="4"/>
    <rect class="smd" x="178" y="80" width="22" height="32" rx="4"/>
  </g>

  <g transform="translate(2052 1346)">
    <rect class="chip" x="0" y="0" width="92" height="92" rx="12"/>
    <text x="46" y="59" text-anchor="middle" class="label" font-size="26">470</text>
  </g>

  <g transform="translate(408 486)">
    <circle class="chip" cx="0" cy="0" r="28"/>
    <circle class="chip" cx="0" cy="192" r="28"/>
    <g fill="#f0efe8">
      <circle cx="86" cy="56" r="10"/><circle cx="128" cy="120" r="10"/><circle cx="72" cy="148" r="10"/><circle cx="118" cy="202" r="10"/><circle cx="60" cy="224" r="10"/>
      <circle cx="164" cy="82" r="8"/><circle cx="186" cy="128" r="8"/><circle cx="204" cy="180" r="8"/><circle cx="214" cy="224" r="8"/><circle cx="226" cy="264" r="8"/>
    </g>
  </g>

  <g transform="translate(580 944)">
    <rect class="smd" x="0" y="0" width="34" height="26" rx="4"/>
    <rect class="smd" x="52" y="0" width="34" height="26" rx="4"/>
    <rect class="smd" x="104" y="0" width="34" height="26" rx="4"/>
    <rect class="smd" x="0" y="48" width="34" height="26" rx="4"/>
    <rect class="smd" x="52" y="48" width="34" height="26" rx="4"/>
    <rect class="smd" x="104" y="48" width="34" height="26" rx="4"/>
  </g>

  <g transform="translate(182 1588)">
    <rect x="0" y="0" width="112" height="120" rx="12" fill="rgba(255,255,255,.12)" stroke="rgba(255,255,255,.16)" stroke-width="4"/>
    <circle cx="58" cy="62" r="34" fill="#101214"/>
  </g>
</svg>
