<!--
  ThermoNerv embedded graphics export stub
  Variant: refrigeration-cooler
  Layer: full
  Source: npm run graphics:export
  Bench/field hardware validation: tracked separately
  Controller touchscreen dashboard export for TouchGFX and embedded UI handoff.
-->
<svg xmlns="http://www.w3.org/2000/svg" data-touchgfx-map="refrigeration" data-render-strategy="cached-static-with-dynamic-overlays" data-static-layer="cached-vector-base" data-dynamic-layers="flow-overlay rotor-overlay status-overlay telemetry-overlay" data-overlay-budget="small-dynamic-overlays" data-symbol-manifest="machine-map-symbols-v1" viewBox="0 0 860 455" role="img" aria-label="Cooler refrigeration cycle schematic">
      <style>
        .pipe {
          fill: none;
          stroke: #6ec4aa;
          stroke-width: 12;
          stroke-linecap: round;
          stroke-linejoin: round;
        }
        .pipe.suction { stroke: #90b8ff; }
        .pipe.discharge { stroke: #ff9d63; }
        .pipe.liquid { stroke: #ffd36d; }
        .pipe-dash {
          fill: none;
          stroke-width: 5;
          stroke-linecap: round;
          stroke-dasharray: 14 10;
          animation: dashFlow 7s linear infinite;
        }
        .suction-dash { stroke: #d6e5ff; }
        .discharge-dash { stroke: #ffd7bd; }
        .liquid-dash { stroke: #fff0b8; }
        .case-box,
        .component,
        .accumulator,
        .oil-separator,
        .compressor-body,
        .compressor-head,
        .evap-box,
        .receiver,
        .small-part,
        .filter {
          fill: #0f1716;
          stroke: #385247;
          stroke-width: 3;
        }
        .evap-box { fill: #122321; stroke: #4b7668; }
        .component.condenser { fill: #101d1a; }
        .component.receiver,
        .receiver,
        .liquid-fill {
          fill: #c79a3e;
        }
        .accumulator,
        .suction-fill { fill: #3e6f9f; }
        .compressor-body { fill: #11171f; stroke: #4c5d73; }
        .compressor-head { fill: #1a2430; stroke: #5f7188; }
        .compressor-fin,
        .valve {
          fill: none;
          stroke: #d6e0ee;
          stroke-width: 3;
          stroke-linecap: round;
        }
        .cycle-label,
        .line-label,
        .big-temp {
          fill: #eef5ef;
          font-family: Arial, sans-serif;
          font-weight: 700;
          letter-spacing: 0.04em;
        }
        .cycle-label,
        .line-label { font-size: 18px; }
        .big-temp {
          font-size: 30px;
          fill: #8ff7d0;
        }
        .line-label { opacity: 0.82; }
        .defrost-heater.active {
          fill: #ffb253;
          filter: drop-shadow(0 0 8px rgba(255, 178, 83, 0.58));
        }
        .heater-coil.active {
          stroke: #ffd6a3;
          stroke-width: 5;
          fill: none;
          stroke-linecap: round;
          stroke-linejoin: round;
        }
        .fan-rotor {
          filter: drop-shadow(0 0 8px rgba(132, 241, 210, 0.18));
        }
        .fan-ring {
          fill: rgba(134, 252, 220, 0.08);
          stroke: #9cf0d5;
          stroke-width: 2.8;
        }
        .fan-blade {
          fill: rgba(134, 252, 220, 0.3);
          stroke: rgba(156, 240, 213, 0.4);
          stroke-width: 1.1;
          stroke-linejoin: round;
        }
        .fan-hub {
          fill: #e7fff7;
          stroke: #9cf0d5;
          stroke-width: 2;
        }
        .led {
          stroke: #ebf6f0;
          stroke-width: 1.5;
        }
        .led-on { fill: #90f3a8; filter: drop-shadow(0 0 6px rgba(144, 243, 168, 0.66)); }
        .led-on.red { fill: #ff8f7d; filter: drop-shadow(0 0 6px rgba(255, 143, 125, 0.66)); }
        .led-off { fill: #1c2b28; }
        .sensor-tag rect {
          fill: rgba(13, 20, 18, 0.92);
          stroke: #5b7d71;
          stroke-width: 2;
        }
        .sensor-tag text {
          fill: #eaf7ef;
          font-family: Arial, sans-serif;
          font-size: 15px;
          font-weight: 700;
          letter-spacing: 0.04em;
        }
        @keyframes dashFlow {
          from { stroke-dashoffset: 0; }
          to { stroke-dashoffset: -96; }
        }
        @keyframes rotorSpin {
          from { transform: rotate(0deg); }
          to { transform: rotate(360deg); }
        }
      </style>
      <g data-render-layer="static-base" data-cache-policy="cache-on-profile-change">

            <path class="pipe suction" d="M205 86 H112 V330 H205 V374 H372"></path>
            <path class="pipe discharge" d="M470 358 H610 V372 H748 V278 H708"></path>
            <path class="pipe liquid" d="M575 258 H298 V200 H720 V86 H635"></path>

            <rect class="case-box" x="190" y="32" width="410" height="134" rx="8"></rect>
            <rect class="evap-box" x="270" y="50" width="185" height="54" rx="7"></rect>
            
            <text class="cycle-label" x="220" y="148">Evaporator</text>
            <text class="big-temp" x="356" y="150">2 C</text>

            <path class="valve" d="M529 66 V98 M515 82 H543 M521 72 L537 92 M537 72 L521 92"></path>
            <text class="cycle-label" x="509" y="130">TXV</text>
            <rect class="small-part" x="575" y="58" width="34" height="30" rx="4"></rect>
            <text class="cycle-label" x="588" y="114">Sol</text>

            <rect class="component condenser" x="560" y="245" width="145" height="70" rx="8"></rect>
            <text class="cycle-label" x="596" y="333">Condenser</text>

            <rect class="component receiver" x="410" y="246" width="55" height="72" rx="8"></rect>
            <rect class="liquid-fill" x="420" y="287" width="35" height="20" rx="3"></rect>
            <text class="cycle-label" x="402" y="336">Receiver</text>
            <text class="cycle-label" x="282" y="302">Drier</text>

            <rect class="accumulator" x="180" y="336" width="55" height="76" rx="9"></rect>
            <rect class="suction-fill" x="190" y="389" width="35" height="15" rx="3"></rect>
            <text class="cycle-label" x="172" y="432">Accum</text>

            <rect class="compressor-body" x="380" y="338" width="86" height="70" rx="9"></rect>
            <rect class="compressor-head" x="466" y="352" width="58" height="32" rx="8"></rect>
            <path class="compressor-fin" d="M398 348 V404 M414 348 V404 M430 348 V404"></path>
            <text class="cycle-label" x="393" y="432">Compressor</text>

            <rect class="oil-separator" x="600" y="338" width="46" height="72" rx="8"></rect>
            <rect class="liquid-fill" x="610" y="384" width="26" height="14" rx="3"></rect>
            <text class="cycle-label" x="584" y="432">Oil Sep</text>

            <text class="line-label suction-label" x="104" y="252">Suction</text>
            <text class="line-label liquid-label" x="686" y="188">Liquid</text>
            <text class="line-label discharge-label" x="758" y="304">Hot Gas</text>
          
      </g>
      <g data-render-layer="flow-overlay" data-overlay-layer="flow-overlay" data-overlay-policy="redraw-on-state-change">
            <path data-render-layer="flow-overlay" class="pipe-dash suction-dash " d="M205 86 H112 V330 H205 V374 H372"></path>
            <path data-render-layer="flow-overlay" class="pipe-dash discharge-dash" d="M470 358 H610 V372 H748 V278 H708"></path>
            <path data-render-layer="flow-overlay" class="pipe-dash liquid-dash" d="M575 258 H298"></path>
            <path data-render-layer="flow-overlay" class="pipe-dash liquid-dash " d="M298 258 V200 H720 V86 H635"></path>
      </g>
      <g data-render-layer="rotor-overlay" data-overlay-layer="rotor-overlay" data-overlay-policy="redraw-on-state-change">
            <g data-render-layer="rotor-overlay" data-symbol-id="fan-rotor" transform="translate(325 77) scale(0.78)">
              <g class="fan-rotor"><circle class="fan-ring" r="22"></circle><path class="fan-blade" d="M0 -16 C8 -16 13 -11 12 -4 C9 -4 5 -3 2 -1 C1 -5 -1 -10 0 -16 Z"></path><path class="fan-blade" transform="rotate(120)" d="M0 -16 C8 -16 13 -11 12 -4 C9 -4 5 -3 2 -1 C1 -5 -1 -10 0 -16 Z"></path><path class="fan-blade" transform="rotate(240)" d="M0 -16 C8 -16 13 -11 12 -4 C9 -4 5 -3 2 -1 C1 -5 -1 -10 0 -16 Z"></path><circle class="fan-hub" r="4.5"></circle></g>
            </g>
            <g data-render-layer="rotor-overlay" data-symbol-id="fan-rotor" transform="translate(400 77) scale(0.78)">
              <g class="fan-rotor"><circle class="fan-ring" r="22"></circle><path class="fan-blade" d="M0 -16 C8 -16 13 -11 12 -4 C9 -4 5 -3 2 -1 C1 -5 -1 -10 0 -16 Z"></path><path class="fan-blade" transform="rotate(120)" d="M0 -16 C8 -16 13 -11 12 -4 C9 -4 5 -3 2 -1 C1 -5 -1 -10 0 -16 Z"></path><path class="fan-blade" transform="rotate(240)" d="M0 -16 C8 -16 13 -11 12 -4 C9 -4 5 -3 2 -1 C1 -5 -1 -10 0 -16 Z"></path><circle class="fan-hub" r="4.5"></circle></g>
            </g>
            <g data-render-layer="rotor-overlay" data-symbol-id="fan-rotor" transform="translate(605 280) scale(0.91)">
              <g class="fan-rotor"><circle class="fan-ring" r="22"></circle><path class="fan-blade" d="M0 -16 C8 -16 13 -11 12 -4 C9 -4 5 -3 2 -1 C1 -5 -1 -10 0 -16 Z"></path><path class="fan-blade" transform="rotate(120)" d="M0 -16 C8 -16 13 -11 12 -4 C9 -4 5 -3 2 -1 C1 -5 -1 -10 0 -16 Z"></path><path class="fan-blade" transform="rotate(240)" d="M0 -16 C8 -16 13 -11 12 -4 C9 -4 5 -3 2 -1 C1 -5 -1 -10 0 -16 Z"></path><circle class="fan-hub" r="4.5"></circle></g>
            </g>
            <g data-render-layer="rotor-overlay" data-symbol-id="fan-rotor" transform="translate(662 280) scale(0.91)">
              <g class="fan-rotor"><circle class="fan-ring" r="22"></circle><path class="fan-blade" d="M0 -16 C8 -16 13 -11 12 -4 C9 -4 5 -3 2 -1 C1 -5 -1 -10 0 -16 Z"></path><path class="fan-blade" transform="rotate(120)" d="M0 -16 C8 -16 13 -11 12 -4 C9 -4 5 -3 2 -1 C1 -5 -1 -10 0 -16 Z"></path><path class="fan-blade" transform="rotate(240)" d="M0 -16 C8 -16 13 -11 12 -4 C9 -4 5 -3 2 -1 C1 -5 -1 -10 0 -16 Z"></path><circle class="fan-hub" r="4.5"></circle></g>
            </g>
      </g>
      <g data-render-layer="status-overlay" data-overlay-layer="status-overlay" data-overlay-policy="redraw-on-state-change">
            <rect data-render-layer="status-overlay" class="small-part " x="505" y="58" width="48" height="48" rx="5"></rect>
            <circle data-render-layer="status-overlay" class="led led-off" cx="615" cy="66" r="5"></circle>
            <circle data-render-layer="status-overlay" class="led led-on red" cx="615" cy="82" r="5"></circle>
            <rect data-render-layer="status-overlay" class="filter " x="270" y="252" width="86" height="28" rx="14"></rect>
            <circle data-render-layer="status-overlay" class="led led-off" cx="453" cy="348" r="5"></circle>
            <circle data-render-layer="status-overlay" class="led led-on red" cx="453" cy="364" r="5"></circle>
      </g>
      <g data-render-layer="telemetry-overlay" data-overlay-layer="telemetry-overlay" data-overlay-policy="redraw-on-state-change">
            <g data-render-layer="telemetry-overlay" class="sensor-tag suction-tag">
              <rect x="92" y="270" width="68" height="26" rx="6"></rect>
              <text x="100" y="288">LP 22</text>
            </g>
            <g data-render-layer="telemetry-overlay" class="sensor-tag temp-tag">
              <rect x="92" y="300" width="68" height="26" rx="6"></rect>
              <text x="100" y="318">ST 4 C</text>
            </g>
            <g data-render-layer="telemetry-overlay" class="sensor-tag evap-tag">
              <rect x="626" y="120" width="70" height="26" rx="6"></rect>
              <text x="634" y="138">EP 20</text>
            </g>
            <g data-render-layer="telemetry-overlay" class="sensor-tag discharge-tag">
              <rect x="754" y="314" width="74" height="26" rx="6"></rect>
              <text x="762" y="332">HP 245</text>
            </g>
            <g data-render-layer="telemetry-overlay" class="sensor-tag temp-tag">
              <rect x="754" y="344" width="74" height="26" rx="6"></rect>
              <text x="762" y="362">DT 57 C</text>
            </g>
            <g data-render-layer="telemetry-overlay" class="sensor-tag temp-tag">
              <rect x="560" y="214" width="72" height="26" rx="6"></rect>
              <text x="568" y="232">CT 34 C</text>
            </g>
      </g>
</svg>

